#!OML:ASF F:\VICON\USERDATA\INSTALL\rory3\rory3.ASF
:FULLY-SPECIFIED
:DEGREES
379
root 2.87809 17.1337 -1.03223 6.53698 -40.565 -2.61684
lowerback 18.9768 2.04414 -4.05457
upperback 6.17382 1.65718 -1.71721
thorax -4.02528 0.737846 0.115019
lowerneck -2.7421 -4.45204 -8.10939
upperneck -4.3945 -5.56825 11.2776
head -0.277155 -2.77955 4.65043
rclavicle -5.04913e-014 -3.97569e-015
rhumerus -19.7078 30.4128 -89.3124
rradius 60.696
rwrist 20.2699
rhand -7.86092 -6.63977
rfingers 7.12502
rthumb 18.0427 -35.8229
lclavicle -5.04913e-014 -3.97569e-015
lhumerus -16.3925 -24.0439 86.9723
lradius 74.7568
lwrist -10.4982
lhand -11.9145 31.1282
lfingers 7.12502
lthumb 14.1394 60.6271
rfemur -40.3684 -3.65929 13.1622
rtibia 76.7705
rfoot -18.0122 -17.6968
rtoes -2.48005
lfemur -41.337 8.65079 -18.8633
ltibia 59.4644
lfoot -20.1581 8.96775
ltoes -2.77878
380
root 2.8613 17.1128 -0.968701 6.67083 -40.4506 -2.76628
lowerback 18.904 2.01963 -4.00821
upperback 6.16047 1.63625 -1.76119
thorax -3.99857 0.728316 0.0485078
lowerneck -2.68696 -4.5045 -8.22328
upperneck -4.50965 -5.63085 11.4213
head -0.305197 -2.81379 4.71459
rclavicle -1.86858e-014 -3.18055e-015
rhumerus -18.4484 29.8275 -88.3547
rradius 61.1736
rwrist 20.7988
rhand -8.34698 -6.22314
rfingers 7.12502
rthumb 17.5749 -35.4488
lclavicle -1.86858e-014 -3.18055e-015
lhumerus -16.1062 -23.9552 86.7432
lradius 74.48
lwrist -11.0226
lhand -11.7999 31.0897
lfingers 7.12502
lthumb 14.2499 60.5808
rfemur -40.7743 -3.27508 13.1691
rtibia 75.7657
rfoot -18.9968 -17.2346
rtoes -1.48851
lfemur -41.4067 8.4892 -18.7729
ltibia 59.8634
lfoot -20.4776 8.80095
ltoes -2.54677
381
root 2.84502 17.0955 -0.905119 6.8871 -40.4168 -3.00571
lowerback 18.8322 2.03573 -3.89104
upperback 6.10609 1.68173 -1.78191
thorax -4.01724 0.752799 -0.0487382
lowerneck -2.57196 -4.55945 -8.26542
upperneck -4.62296 -5.70362 11.4416
head -0.347927 -2.85447 4.73069
rclavicle -1.43125e-014 -1.82882e-014
rhumerus -17.2073 29.1711 -87.3578
rradius 61.6708
rwrist 21.3729
rhand -10.5071 -4.40463
rfingers 7.12502
rthumb 15.4953 -33.8037
lclavicle -1.43125e-014 -1.82882e-014
lhumerus -15.9422 -23.8915 86.6147
lradius 74.2797
lwrist -11.3923
lhand -11.5982 31.223
lfingers 7.12502
lthumb 14.4441 60.7004
rfemur -41.1483 -2.79261 13.1871
rtibia 74.6245
rfoot -19.8308 -16.4076
rtoes -0.331898
lfemur -41.4488 8.43844 -18.6519
ltibia 60.229
lfoot -20.7561 8.88832
ltoes -3.38429
382
root 2.82772 17.0848 -0.840581 6.88312 -40.4323 -3.05667
lowerback 18.8236 2.08149 -3.90722
upperback 6.10263 1.7331 -1.87065
thorax -4.01548 0.778179 -0.14504
lowerneck -2.55597 -4.64119 -8.176
upperneck -4.67295 -5.81389 11.4371
head -0.357 -2.91245 4.71331
rclavicle 2.22639e-014 -1.27222e-014
rhumerus -15.8207 28.4621 -86.3538
rradius 62.0566
rwrist 21.8498
rhand -12.251 -2.98201
rfingers 7.12502
rthumb 13.8151 -32.5033
lclavicle 2.22639e-014 -1.27222e-014
lhumerus -15.7528 -23.8283 86.4635
lradius 74.0952
lwrist -11.778
lhand -11.1427 31.4218
lfingers 7.12502
lthumb 14.883 60.8672
rfemur -41.4864 -2.39217 13.0855
rtibia 73.4541
rfoot -20.1571 -15.9031
rtoes -0.0180765
lfemur -41.2896 8.47764 -18.728
ltibia 60.5508
lfoot -21.2433 9.04944
ltoes -4.48426
383
root 2.80938 17.0765 -0.780211 6.69853 -40.4027 -3.0403
lowerback 19.0136 2.12723 -4.00731
upperback 6.14269 1.75664 -1.95139
thorax -4.07223 0.788583 -0.184408
lowerneck -2.78812 -4.75019 -8.11523
upperneck -4.56032 -5.95521 11.5308
head -0.270467 -2.97759 4.72047
rclavicle 2.66371e-014 7.15625e-015
rhumerus -14.3184 27.7196 -85.2747
rradius 62.4143
rwrist 22.4376
rhand -12.8209 -2.28759
rfingers 7.12502
rthumb 13.2658 -31.8454
lclavicle 2.66371e-014 7.15625e-015
lhumerus -15.5051 -23.8119 86.2679
lradius 73.9346
lwrist -12.1355
lhand -10.9285 31.6392
lfingers 7.12502
lthumb 15.0894 61.0692
rfemur -41.7007 -2.0853 12.9788
rtibia 72.2372
rfoot -20.1008 -15.8254
rtoes -1.05535
lfemur -40.9769 8.46231 -18.7991
ltibia 60.8307
lfoot -21.7526 8.9424
ltoes -4.50084
